Coordinates
version=1
nRows=19
nColumns=38
inDegrees=no

Units are S.I. units (second, meters, Newtons, ...)
If the header above contains a line with 'inDegrees', this indicates whether rotational values are in degrees (yes) or radians (no).

endheader
time	pelvis_tilt	pelvis_list	pelvis_rotation	pelvis_tx	pelvis_ty	pelvis_tz	hip_flexion_r	hip_adduction_r	hip_rotation_r	knee_angle_r	ankle_angle_r	subtalar_angle_r	mtp_angle_r	hip_flexion_l	hip_adduction_l	hip_rotation_l	knee_angle_l	ankle_angle_l	subtalar_angle_l	mtp_angle_l	lumbar_extension	lumbar_bending	lumbar_rotation	arm_flex_r	arm_add_r	arm_rot_r	elbow_flex_r	pro_sup_r	wrist_flex_r	wrist_dev_r	arm_flex_l	arm_add_l	arm_rot_l	elbow_flex_l	pro_sup_l	wrist_flex_l	wrist_dev_l
1.39	-0.137671	-0.108154	0.0743327	0.875452	0.932954	-0.314809	1.00306	-0.0144535	-0.375392	-0.843195	0.45771	0.1	-0.00304403	-0.293562	-0.164331	-0.209003	-0.647116	-0.297941	0.1	-0.0055616	-0.105066	0.118282	-0.192265	-1.1592	-0.253552	-0.216376	1.75828	1.53295	-5.66263e-06	-0.0173684	0.229123	-0.586017	0.172545	2.34672	2.00399	-0.00482724	-0.00281183
1.4	-0.133002	-0.09316	0.0663404	0.876808	0.931574	-0.315122	0.956072	-0.0150873	-0.405528	-0.72843	0.4634	0.1	-0.00304403	-0.280411	-0.146506	-0.174653	-0.750874	-0.327069	0.1	-0.0055616	-0.113056	0.104264	-0.182188	-1.14503	-0.255244	-0.207815	1.77145	1.53688	-5.66263e-06	-0.0173684	0.199129	-0.580421	0.177443	2.3422	2.01179	-0.00482724	-0.00281183
1.41	-0.125254	-0.0789792	0.05611	0.878316	0.929446	-0.31514	0.905946	-0.0135768	-0.432761	-0.637772	0.456108	0.1	-0.00304403	-0.262521	-0.131475	-0.148987	-0.870889	-0.335353	0.1	-0.0055616	-0.123817	0.0907178	-0.167603	-1.12545	-0.261846	-0.198224	1.78585	1.53889	-5.66263e-06	-0.0173684	0.161146	-0.575575	0.178199	2.32709	2.01978	-0.00482724	-0.00281183
1.42	-0.115276	-0.0673772	0.0432552	0.879893	0.926457	-0.314763	0.855902	-0.00863793	-0.4544	-0.574514	0.436296	0.1	-0.00304403	-0.240409	-0.122028	-0.135022	-1.00244	-0.327652	0.1	-0.0055616	-0.136235	0.0794983	-0.147661	-1.10102	-0.273005	-0.18843	1.80089	1.53862	-5.66263e-06	-0.0173684	0.116678	-0.570897	0.175145	2.30203	2.02849	-0.00482724	-0.00281183
1.43	-0.104178	-0.0598284	0.0275638	0.881378	0.922521	-0.31396	0.808964	0.000736608	-0.468058	-0.540158	0.406857	0.1	-0.00304403	-0.213696	-0.120158	-0.133195	-1.14101	-0.308707	0.1	-0.0055616	-0.149242	0.0721517	-0.121807	-1.07185	-0.288241	-0.179038	1.81552	1.53616	-5.66263e-06	-0.0173684	0.0676715	-0.565666	0.168766	2.26805	2.03895	-0.00482724	-0.00281183
1.44	-0.0931207	-0.0573283	0.00909029	0.882566	0.91762	-0.312776	0.76756	0.0150685	-0.472119	-0.534317	0.373223	0.1	-0.00304403	-0.181232	-0.126752	-0.141522	-1.28248	-0.28255	0.1	-0.0055616	-0.16202	0.0697	-0.0899749	-1.03747	-0.307052	-0.170252	1.8283	1.53197	-5.66263e-06	-0.0173684	0.0162333	-0.559091	0.159521	2.22654	2.0526	-0.00482724	-0.00281183
1.45	-0.0831192	-0.0602574	-0.0117954	0.883248	0.911937	-0.311336	0.73311	0.0342638	-0.466047	-0.554703	0.342761	0.1	-0.00304403	-0.141378	-0.141486	-0.156294	-1.4232	-0.252309	0.1	-0.0055616	-0.17412	0.0725055	-0.0526993	-0.996941	-0.328982	-0.1618	1.83768	1.5268	-5.66263e-06	-0.0173684	-0.0356715	-0.550409	0.147695	2.17918	2.07101	-0.00482724	-0.00281183
1.46	-0.0748703	-0.0683167	-0.0343936	0.88325	0.906007	-0.309823	0.705697	0.057575	-0.450451	-0.597113	0.323325	0.1	-0.00304403	-0.0923777	-0.162895	-0.173004	-1.55991	-0.220189	0.1	-0.0055616	-0.185468	0.0802193	-0.0111608	-0.949045	-0.353641	-0.152968	1.84232	1.52155	-5.66263e-06	-0.0173684	-0.0864983	-0.538999	0.133322	2.12799	2.09557	-0.00482724	-0.00281183
1.47	-0.0686686	-0.0805544	-0.0576832	0.882436	0.900576	-0.308376	0.683948	0.0836175	-0.426989	-0.655549	0.321247	0.1	-0.00304403	-0.0327614	-0.18854	-0.187255	-1.68951	-0.187539	0.1	-0.0055616	-0.196254	0.0917975	0.032851	-0.892649	-0.380665	-0.142757	1.84147	1.51707	-5.66263e-06	-0.0173684	-0.135306	-0.524506	0.116223	2.07521	2.1271	-0.00482724	-0.00281183
1.48	-0.0644617	-0.0954267	-0.0803602	0.880709	0.896077	-0.307032	0.665245	0.11041	-0.398128	-0.722725	0.339616	0.1	-0.00304403	0.0383162	-0.21524	-0.195474	-1.80902	-0.154953	0.1	-0.0055616	-0.206753	0.105587	0.0770567	-0.827079	-0.409633	-0.130113	1.83527	1.51402	-5.66263e-06	-0.0173684	-0.181801	-0.506948	0.0961224	2.02325	2.16561	-0.00482724	-0.00281183
1.49	-0.0619726	-0.110888	-0.100933	0.878084	0.892452	-0.305875	0.646325	0.135476	-0.366793	-0.791012	0.377649	0.1	-0.00304403	0.120864	-0.23939	-0.195417	-1.91546	-0.122393	0.1	-0.0055616	-0.217114	0.119494	0.118923	-0.752432	-0.439969	-0.114188	1.82491	1.51271	-5.66263e-06	-0.0173684	-0.22623	-0.486769	0.0728267	1.97444	2.21015	-0.00482724	-0.00281183
1.5	-0.0608202	-0.124578	-0.117912	0.874707	0.889532	-0.305153	0.624014	0.156093	-0.335906	-0.853539	0.431262	0.1	-0.00304403	0.213953	-0.257384	-0.186426	-2.00602	-0.089443	0.1	-0.0055616	-0.227207	0.131228	0.156024	-0.669736	-0.470872	-0.0945852	1.81255	1.51305	-5.66263e-06	-0.0173684	-0.269151	-0.464831	0.0464125	1.93082	2.2587	-0.00482724	-0.00281183
1.51	-0.0606174	-0.134216	-0.130089	0.870826	0.887282	-0.305065	0.595828	0.169717	-0.307852	-0.904999	0.494358	0.1	-0.00304403	0.315697	-0.266138	-0.169449	-2.07811	-0.0556117	0.1	-0.0055616	-0.2366	0.138563	0.186457	-0.580925	-0.501333	-0.0714925	1.80098	1.51456	-5.66263e-06	-0.0173684	-0.311183	-0.442313	0.0173496	1.89399	2.30816	-0.00482724	-0.00281183
1.52	-0.0610454	-0.137947	-0.136809	0.866726	0.885779	-0.305519	0.560226	0.174502	-0.284086	-0.941948	0.560101	0.1	-0.00304403	0.42329	-0.263663	-0.146817	-2.12963	-0.020591	0.1	-0.0055616	-0.244698	0.139662	0.20921	-0.488586	-0.530261	-0.0456626	1.79319	1.51645	-5.66263e-06	-0.0173684	-0.352863	-0.420555	-0.0135165	1.865	2.35444	-0.00482724	-0.00281183
1.53	-0.0618546	-0.134653	-0.138156	0.862697	0.885103	-0.306259	0.516527	0.169679	-0.265037	-0.962619	0.621783	0.1	-0.00304403	0.533145	-0.2495	-0.121782	-2.15906	0.0156716	0.1	-0.0055616	-0.250936	0.133329	0.224322	-0.395579	-0.556687	-0.01822	1.79177	1.51771	-5.66263e-06	-0.0173684	-0.394623	-0.400839	-0.0451235	1.84441	2.39279	-0.00482724	-0.00281183
1.54	-0.0628115	-0.124092	-0.134986	0.859035	0.885293	-0.307106	0.464675	0.15567	-0.250322	-0.966503	0.673272	0.1	-0.00304403	0.641166	-0.224858	-0.0979243	-2.16563	0.0530698	0.1	-0.0055616	-0.254938	0.119165	0.232826	-0.304612	-0.579951	0.00961014	1.79849	1.51727	-5.66263e-06	-0.0173684	-0.436834	-0.384178	-0.0764167	1.83237	2.41854	-0.00482724	-0.00281183
1.55	-0.0636811	-0.106909	-0.128771	0.856001	0.886355	-0.307952	0.405023	0.133884	-0.239164	-0.953945	0.709294	0.1	-0.00304403	0.743141	-0.192391	-0.0785362	-2.14931	0.0915124	0.1	-0.0055616	-0.256582	0.0975844	0.23648	-0.217949	-0.599804	0.0367209	1.81405	1.51423	-5.66263e-06	-0.0173684	-0.479817	-0.37115	-0.106518	1.82866	2.42814	-0.00482724	-0.00281183
1.56	-0.0642703	-0.084496	-0.121289	0.853786	0.888303	-0.308671	0.338253	0.106391	-0.230807	-0.925885	0.725592	0.1	-0.00304403	0.83519	-0.155674	-0.0661115	-2.11082	0.130992	0.1	-0.0055616	-0.255954	0.0697573	0.2374	-0.137302	-0.616408	0.0622128	1.83802	1.50812	-5.66263e-06	-0.0173684	-0.523761	-0.361841	-0.134757	1.83265	2.41993	-0.00482724	-0.00281183
1.57	-0.0644968	-0.0587578	-0.114255	0.852507	0.891155	-0.30916	0.265425	0.0755269	-0.224872	-0.883815	0.719162	0.1	-0.00304403	0.914195	-0.118554	-0.0620294	-2.05147	0.171525	0.1	-0.0055616	-0.253231	0.0375025	0.237686	-0.0638956	-0.630261	0.0853731	1.86913	1.49909	-5.66263e-06	-0.0173684	-0.568607	-0.355892	-0.160602	1.84324	2.39458	-0.00482724	-0.00281183
